<mxfile host="app.diagrams.net" modified="2024-03-16T11:57:17.049Z" agent="Mozilla/5.0 (Windows NT 10.0; Win64; x64) AppleWebKit/537.36 (KHTML, like Gecko) Chrome/120.0.0.0 YaBrowser/24.1.0.0 Safari/537.36" etag="hMztUZ3p9IQBr41YSfib" version="24.0.6" type="device">
  <diagram name="Страница — 1" id="dSkNN7bWfjVoEKQZi5LQ">
    <mxGraphModel dx="3084" dy="1018" grid="1" gridSize="10" guides="1" tooltips="1" connect="1" arrows="1" fold="1" page="1" pageScale="1" pageWidth="827" pageHeight="1169" math="0" shadow="0">
      <root>
        <mxCell id="0" />
        <mxCell id="1" parent="0" />
        <mxCell id="Dn6n6KIbjxRRAOKlYd3R-1" value="&lt;font face=&quot;Helvetica&quot; style=&quot;font-size: 14px;&quot;&gt;Разработка магазина по торговле авиабилетами через интернет&lt;/font&gt;" style="rounded=0;whiteSpace=wrap;html=1;" vertex="1" parent="1">
          <mxGeometry x="200" y="70" width="160" height="70" as="geometry" />
        </mxCell>
        <mxCell id="Dn6n6KIbjxRRAOKlYd3R-2" value="&lt;font style=&quot;font-size: 14px;&quot;&gt;1. Инициация проекта&lt;/font&gt;" style="rounded=0;whiteSpace=wrap;html=1;" vertex="1" parent="1">
          <mxGeometry x="-190" y="220" width="160" height="70" as="geometry" />
        </mxCell>
        <mxCell id="Dn6n6KIbjxRRAOKlYd3R-3" value="&lt;font style=&quot;font-size: 14px;&quot;&gt;2. Планирование проекта&lt;/font&gt;" style="rounded=0;whiteSpace=wrap;html=1;" vertex="1" parent="1">
          <mxGeometry x="60" y="220" width="160" height="70" as="geometry" />
        </mxCell>
        <mxCell id="Dn6n6KIbjxRRAOKlYd3R-4" value="&lt;font style=&quot;font-size: 14px;&quot;&gt;3. Реализация&lt;/font&gt;" style="rounded=0;whiteSpace=wrap;html=1;" vertex="1" parent="1">
          <mxGeometry x="300" y="220" width="160" height="70" as="geometry" />
        </mxCell>
        <mxCell id="Dn6n6KIbjxRRAOKlYd3R-5" value="&lt;font style=&quot;font-size: 14px;&quot;&gt;4. Завершение проекта&lt;/font&gt;" style="rounded=0;whiteSpace=wrap;html=1;" vertex="1" parent="1">
          <mxGeometry x="780" y="220" width="160" height="70" as="geometry" />
        </mxCell>
        <mxCell id="Dn6n6KIbjxRRAOKlYd3R-6" value="" style="endArrow=none;html=1;rounded=0;" edge="1" parent="1">
          <mxGeometry width="50" height="50" relative="1" as="geometry">
            <mxPoint x="-110" y="180" as="sourcePoint" />
            <mxPoint x="860" y="180" as="targetPoint" />
          </mxGeometry>
        </mxCell>
        <mxCell id="Dn6n6KIbjxRRAOKlYd3R-8" value="" style="endArrow=none;html=1;rounded=0;entryX=0.5;entryY=0;entryDx=0;entryDy=0;" edge="1" parent="1" target="Dn6n6KIbjxRRAOKlYd3R-3">
          <mxGeometry width="50" height="50" relative="1" as="geometry">
            <mxPoint x="140" y="180" as="sourcePoint" />
            <mxPoint x="490" y="220" as="targetPoint" />
          </mxGeometry>
        </mxCell>
        <mxCell id="Dn6n6KIbjxRRAOKlYd3R-9" value="" style="endArrow=none;html=1;rounded=0;" edge="1" parent="1">
          <mxGeometry width="50" height="50" relative="1" as="geometry">
            <mxPoint x="-110.34" y="220" as="sourcePoint" />
            <mxPoint x="-110.34" y="180" as="targetPoint" />
          </mxGeometry>
        </mxCell>
        <mxCell id="Dn6n6KIbjxRRAOKlYd3R-10" value="" style="endArrow=none;html=1;rounded=0;entryX=0.5;entryY=0;entryDx=0;entryDy=0;" edge="1" parent="1">
          <mxGeometry width="50" height="50" relative="1" as="geometry">
            <mxPoint x="379.58000000000004" y="180" as="sourcePoint" />
            <mxPoint x="379.58000000000004" y="220" as="targetPoint" />
          </mxGeometry>
        </mxCell>
        <mxCell id="Dn6n6KIbjxRRAOKlYd3R-11" value="" style="endArrow=none;html=1;rounded=0;entryX=0.5;entryY=0;entryDx=0;entryDy=0;" edge="1" parent="1">
          <mxGeometry width="50" height="50" relative="1" as="geometry">
            <mxPoint x="859.66" y="180" as="sourcePoint" />
            <mxPoint x="859.66" y="220" as="targetPoint" />
          </mxGeometry>
        </mxCell>
        <mxCell id="Dn6n6KIbjxRRAOKlYd3R-12" value="" style="endArrow=none;html=1;rounded=0;" edge="1" parent="1">
          <mxGeometry width="50" height="50" relative="1" as="geometry">
            <mxPoint x="-159.5" y="560" as="sourcePoint" />
            <mxPoint x="-160" y="290" as="targetPoint" />
          </mxGeometry>
        </mxCell>
        <mxCell id="Dn6n6KIbjxRRAOKlYd3R-13" value="&lt;font style=&quot;font-size: 14px;&quot;&gt;1.1 Определение целей, задач и ожидаемых результатов проекта&lt;/font&gt;" style="rounded=0;whiteSpace=wrap;html=1;" vertex="1" parent="1">
          <mxGeometry x="-130" y="340" width="160" height="70" as="geometry" />
        </mxCell>
        <mxCell id="Dn6n6KIbjxRRAOKlYd3R-14" value="&lt;font style=&quot;font-size: 14px;&quot;&gt;1.2 Составление команды разработчиков&lt;/font&gt;&lt;span style=&quot;color: rgba(0, 0, 0, 0); font-family: monospace; font-size: 0px; text-align: start; text-wrap: nowrap;&quot;&gt;%3CmxGraphModel%3E%3Croot%3E%3CmxCell%20id%3D%220%22%2F%3E%3CmxCell%20id%3D%221%22%20parent%3D%220%22%2F%3E%3CmxCell%20id%3D%222%22%20value%3D%22%26lt%3Bfont%20style%3D%26quot%3Bfont-size%3A%2014px%3B%26quot%3B%26gt%3B1.1%20%D0%9E%D0%BF%D1%80%D0%B5%D0%B4%D0%B5%D0%BB%D0%B5%D0%BD%D0%B8%D0%B5%20%D1%86%D0%B5%D0%BB%D0%B5%D0%B9%20%D0%B8%20%D0%B7%D0%B0%D0%B4%D0%B0%D1%87%20%D0%BF%D1%80%D0%BE%D0%B5%D0%BA%D1%82%D0%B0%26lt%3B%2Ffont%26gt%3B%22%20style%3D%22rounded%3D0%3BwhiteSpace%3Dwrap%3Bhtml%3D1%3B%22%20vertex%3D%221%22%20parent%3D%221%22%3E%3CmxGeometry%20x%3D%22-120%22%20y%3D%22340%22%20width%3D%22150%22%20height%3D%2270%22%20as%3D%22geometry%22%2F%3E%3C%2FmxCell%3E%3C%2Froot%3E%3C%2FmxGraphModel%3E&lt;/span&gt;" style="rounded=0;whiteSpace=wrap;html=1;" vertex="1" parent="1">
          <mxGeometry x="-130" y="430" width="160" height="70" as="geometry" />
        </mxCell>
        <mxCell id="Dn6n6KIbjxRRAOKlYd3R-15" value="&lt;font style=&quot;font-size: 14px;&quot;&gt;1.3 Разработка устава проекта&lt;/font&gt;" style="rounded=0;whiteSpace=wrap;html=1;" vertex="1" parent="1">
          <mxGeometry x="-130" y="520" width="160" height="70" as="geometry" />
        </mxCell>
        <mxCell id="Dn6n6KIbjxRRAOKlYd3R-16" value="" style="endArrow=none;html=1;rounded=0;" edge="1" parent="1">
          <mxGeometry width="50" height="50" relative="1" as="geometry">
            <mxPoint x="-160" y="560" as="sourcePoint" />
            <mxPoint x="-130" y="560" as="targetPoint" />
          </mxGeometry>
        </mxCell>
        <mxCell id="Dn6n6KIbjxRRAOKlYd3R-17" value="" style="endArrow=none;html=1;rounded=0;" edge="1" parent="1">
          <mxGeometry width="50" height="50" relative="1" as="geometry">
            <mxPoint x="-160" y="465" as="sourcePoint" />
            <mxPoint x="-130" y="465" as="targetPoint" />
          </mxGeometry>
        </mxCell>
        <mxCell id="Dn6n6KIbjxRRAOKlYd3R-18" value="" style="endArrow=none;html=1;rounded=0;" edge="1" parent="1">
          <mxGeometry width="50" height="50" relative="1" as="geometry">
            <mxPoint x="-160" y="375" as="sourcePoint" />
            <mxPoint x="-130" y="375" as="targetPoint" />
          </mxGeometry>
        </mxCell>
        <mxCell id="Dn6n6KIbjxRRAOKlYd3R-19" value="" style="endArrow=none;html=1;rounded=0;entryX=0.5;entryY=0;entryDx=0;entryDy=0;" edge="1" parent="1">
          <mxGeometry width="50" height="50" relative="1" as="geometry">
            <mxPoint x="280" y="140" as="sourcePoint" />
            <mxPoint x="280" y="180" as="targetPoint" />
          </mxGeometry>
        </mxCell>
        <mxCell id="Dn6n6KIbjxRRAOKlYd3R-20" value="" style="endArrow=none;html=1;rounded=0;" edge="1" parent="1">
          <mxGeometry width="50" height="50" relative="1" as="geometry">
            <mxPoint x="80.5" y="560" as="sourcePoint" />
            <mxPoint x="80" y="290" as="targetPoint" />
          </mxGeometry>
        </mxCell>
        <mxCell id="Dn6n6KIbjxRRAOKlYd3R-21" value="&lt;font style=&quot;font-size: 14px;&quot;&gt;2.1 Разработка календарного плана проекта&lt;/font&gt;" style="rounded=0;whiteSpace=wrap;html=1;" vertex="1" parent="1">
          <mxGeometry x="100" y="340" width="160" height="70" as="geometry" />
        </mxCell>
        <mxCell id="Dn6n6KIbjxRRAOKlYd3R-22" value="&lt;font style=&quot;font-size: 14px;&quot;&gt;2.2 Определение рисков проекта&lt;/font&gt;" style="rounded=0;whiteSpace=wrap;html=1;" vertex="1" parent="1">
          <mxGeometry x="100" y="430" width="160" height="70" as="geometry" />
        </mxCell>
        <mxCell id="Dn6n6KIbjxRRAOKlYd3R-23" value="&lt;font style=&quot;font-size: 14px;&quot;&gt;2.3 Определение бюджета проекта&lt;/font&gt;" style="rounded=0;whiteSpace=wrap;html=1;" vertex="1" parent="1">
          <mxGeometry x="100" y="520" width="160" height="70" as="geometry" />
        </mxCell>
        <mxCell id="Dn6n6KIbjxRRAOKlYd3R-24" value="" style="endArrow=none;html=1;rounded=0;" edge="1" parent="1">
          <mxGeometry width="50" height="50" relative="1" as="geometry">
            <mxPoint x="80" y="464.76" as="sourcePoint" />
            <mxPoint x="100" y="465" as="targetPoint" />
          </mxGeometry>
        </mxCell>
        <mxCell id="Dn6n6KIbjxRRAOKlYd3R-25" value="" style="endArrow=none;html=1;rounded=0;" edge="1" parent="1">
          <mxGeometry width="50" height="50" relative="1" as="geometry">
            <mxPoint x="80" y="560" as="sourcePoint" />
            <mxPoint x="100" y="560" as="targetPoint" />
          </mxGeometry>
        </mxCell>
        <mxCell id="Dn6n6KIbjxRRAOKlYd3R-26" value="" style="endArrow=none;html=1;rounded=0;" edge="1" parent="1">
          <mxGeometry width="50" height="50" relative="1" as="geometry">
            <mxPoint x="80" y="375" as="sourcePoint" />
            <mxPoint x="100" y="375.12" as="targetPoint" />
          </mxGeometry>
        </mxCell>
        <mxCell id="Dn6n6KIbjxRRAOKlYd3R-27" value="" style="endArrow=none;html=1;rounded=0;" edge="1" parent="1">
          <mxGeometry width="50" height="50" relative="1" as="geometry">
            <mxPoint x="320" y="1210" as="sourcePoint" />
            <mxPoint x="320" y="290" as="targetPoint" />
          </mxGeometry>
        </mxCell>
        <mxCell id="Dn6n6KIbjxRRAOKlYd3R-28" value="&lt;font style=&quot;font-size: 14px;&quot;&gt;3.1 Проектирование&lt;/font&gt;" style="rounded=0;whiteSpace=wrap;html=1;" vertex="1" parent="1">
          <mxGeometry x="340" y="340" width="160" height="70" as="geometry" />
        </mxCell>
        <mxCell id="Dn6n6KIbjxRRAOKlYd3R-29" value="&lt;font style=&quot;font-size: 14px;&quot;&gt;3.2 Разработка&lt;/font&gt;" style="rounded=0;whiteSpace=wrap;html=1;" vertex="1" parent="1">
          <mxGeometry x="340" y="590" width="160" height="70" as="geometry" />
        </mxCell>
        <mxCell id="Dn6n6KIbjxRRAOKlYd3R-30" value="&lt;font style=&quot;font-size: 14px;&quot;&gt;3.3 Тестирование&lt;/font&gt;" style="rounded=0;whiteSpace=wrap;html=1;" vertex="1" parent="1">
          <mxGeometry x="340" y="920" width="160" height="70" as="geometry" />
        </mxCell>
        <mxCell id="Dn6n6KIbjxRRAOKlYd3R-31" value="" style="endArrow=none;html=1;rounded=0;" edge="1" parent="1">
          <mxGeometry width="50" height="50" relative="1" as="geometry">
            <mxPoint x="320" y="374.86" as="sourcePoint" />
            <mxPoint x="340" y="374.98" as="targetPoint" />
          </mxGeometry>
        </mxCell>
        <mxCell id="Dn6n6KIbjxRRAOKlYd3R-32" value="" style="endArrow=none;html=1;rounded=0;" edge="1" parent="1">
          <mxGeometry width="50" height="50" relative="1" as="geometry">
            <mxPoint x="320" y="630" as="sourcePoint" />
            <mxPoint x="340" y="630.12" as="targetPoint" />
          </mxGeometry>
        </mxCell>
        <mxCell id="Dn6n6KIbjxRRAOKlYd3R-33" value="" style="endArrow=none;html=1;rounded=0;" edge="1" parent="1">
          <mxGeometry width="50" height="50" relative="1" as="geometry">
            <mxPoint x="320" y="960" as="sourcePoint" />
            <mxPoint x="340" y="960.12" as="targetPoint" />
          </mxGeometry>
        </mxCell>
        <mxCell id="Dn6n6KIbjxRRAOKlYd3R-34" value="" style="endArrow=none;html=1;rounded=0;" edge="1" parent="1">
          <mxGeometry width="50" height="50" relative="1" as="geometry">
            <mxPoint x="500" y="374.66" as="sourcePoint" />
            <mxPoint x="550" y="374.66" as="targetPoint" />
          </mxGeometry>
        </mxCell>
        <mxCell id="Dn6n6KIbjxRRAOKlYd3R-35" value="&lt;font style=&quot;font-size: 14px;&quot;&gt;3.1.1 Разработка архитектуры&lt;/font&gt;" style="rounded=0;whiteSpace=wrap;html=1;" vertex="1" parent="1">
          <mxGeometry x="550" y="340" width="160" height="70" as="geometry" />
        </mxCell>
        <mxCell id="Dn6n6KIbjxRRAOKlYd3R-36" value="" style="endArrow=none;html=1;rounded=0;" edge="1" parent="1">
          <mxGeometry width="50" height="50" relative="1" as="geometry">
            <mxPoint x="520" y="530" as="sourcePoint" />
            <mxPoint x="520" y="375" as="targetPoint" />
          </mxGeometry>
        </mxCell>
        <mxCell id="Dn6n6KIbjxRRAOKlYd3R-37" value="" style="endArrow=none;html=1;rounded=0;entryX=0;entryY=0.5;entryDx=0;entryDy=0;" edge="1" parent="1" target="Dn6n6KIbjxRRAOKlYd3R-38">
          <mxGeometry width="50" height="50" relative="1" as="geometry">
            <mxPoint x="520" y="455" as="sourcePoint" />
            <mxPoint x="570" y="450" as="targetPoint" />
          </mxGeometry>
        </mxCell>
        <mxCell id="Dn6n6KIbjxRRAOKlYd3R-38" value="&lt;font style=&quot;font-size: 14px;&quot;&gt;3.1.2 Разработка дизайна UI/UX&lt;/font&gt;" style="rounded=0;whiteSpace=wrap;html=1;" vertex="1" parent="1">
          <mxGeometry x="550" y="420" width="160" height="70" as="geometry" />
        </mxCell>
        <mxCell id="Dn6n6KIbjxRRAOKlYd3R-39" value="&lt;font style=&quot;font-size: 14px;&quot;&gt;3.1.3 Разработка БД&lt;/font&gt;" style="rounded=0;whiteSpace=wrap;html=1;" vertex="1" parent="1">
          <mxGeometry x="550" y="500" width="160" height="70" as="geometry" />
        </mxCell>
        <mxCell id="Dn6n6KIbjxRRAOKlYd3R-40" value="" style="endArrow=none;html=1;rounded=0;" edge="1" parent="1">
          <mxGeometry width="50" height="50" relative="1" as="geometry">
            <mxPoint x="520" y="530" as="sourcePoint" />
            <mxPoint x="550" y="530" as="targetPoint" />
          </mxGeometry>
        </mxCell>
        <mxCell id="Dn6n6KIbjxRRAOKlYd3R-41" value="" style="endArrow=none;html=1;rounded=0;" edge="1" parent="1">
          <mxGeometry width="50" height="50" relative="1" as="geometry">
            <mxPoint x="500" y="620" as="sourcePoint" />
            <mxPoint x="550" y="620" as="targetPoint" />
          </mxGeometry>
        </mxCell>
        <mxCell id="Dn6n6KIbjxRRAOKlYd3R-42" value="" style="endArrow=none;html=1;rounded=0;" edge="1" parent="1">
          <mxGeometry width="50" height="50" relative="1" as="geometry">
            <mxPoint x="520" y="860" as="sourcePoint" />
            <mxPoint x="520" y="620.34" as="targetPoint" />
          </mxGeometry>
        </mxCell>
        <mxCell id="Dn6n6KIbjxRRAOKlYd3R-43" value="" style="endArrow=none;html=1;rounded=0;" edge="1" parent="1">
          <mxGeometry width="50" height="50" relative="1" as="geometry">
            <mxPoint x="520" y="775.34" as="sourcePoint" />
            <mxPoint x="550" y="775.34" as="targetPoint" />
          </mxGeometry>
        </mxCell>
        <mxCell id="Dn6n6KIbjxRRAOKlYd3R-50" value="&lt;font style=&quot;font-size: 14px;&quot;&gt;3.2.1 Верстка сайта&amp;nbsp;&lt;/font&gt;&lt;span style=&quot;font-size:12.0pt;line-height:107%;&lt;br/&gt;font-family:&amp;quot;Times New Roman&amp;quot;,serif;mso-fareast-font-family:Calibri;mso-fareast-theme-font:&lt;br/&gt;minor-latin;mso-ansi-language:RU;mso-fareast-language:EN-US;mso-bidi-language:&lt;br/&gt;AR-SA&quot;&gt;с &lt;/span&gt;&lt;span style=&quot;line-height: 107%;&quot;&gt;&lt;font face=&quot;Helvetica&quot; style=&quot;font-size: 14px;&quot;&gt;использованием HTML, CSS и JavaScript&amp;nbsp;&lt;/font&gt;&lt;/span&gt;" style="rounded=0;whiteSpace=wrap;html=1;" vertex="1" parent="1">
          <mxGeometry x="550" y="590" width="160" height="70" as="geometry" />
        </mxCell>
        <mxCell id="Dn6n6KIbjxRRAOKlYd3R-51" value="&lt;font style=&quot;font-size: 14px;&quot;&gt;3.2.2 Реализация бэкенда и серверной логики&lt;/font&gt;" style="rounded=0;whiteSpace=wrap;html=1;" vertex="1" parent="1">
          <mxGeometry x="550" y="670" width="160" height="70" as="geometry" />
        </mxCell>
        <mxCell id="Dn6n6KIbjxRRAOKlYd3R-52" value="&lt;font style=&quot;font-size: 14px;&quot;&gt;3.2.3&amp;nbsp;&lt;/font&gt;&lt;span style=&quot;line-height: 107%;&quot;&gt;&lt;font style=&quot;font-size: 14px;&quot;&gt;Разработать CMS для добавления и&lt;br/&gt;редактирования товаров и категорий&lt;/font&gt;&lt;/span&gt;" style="rounded=0;whiteSpace=wrap;html=1;" vertex="1" parent="1">
          <mxGeometry x="550" y="750" width="160" height="70" as="geometry" />
        </mxCell>
        <mxCell id="Dn6n6KIbjxRRAOKlYd3R-53" value="" style="endArrow=none;html=1;rounded=0;" edge="1" parent="1">
          <mxGeometry width="50" height="50" relative="1" as="geometry">
            <mxPoint x="520" y="704.71" as="sourcePoint" />
            <mxPoint x="550" y="704.71" as="targetPoint" />
          </mxGeometry>
        </mxCell>
        <mxCell id="Dn6n6KIbjxRRAOKlYd3R-54" value="&lt;font style=&quot;font-size: 14px;&quot;&gt;3.2.4 Интеграция системы оплаты и обработки заказов&lt;/font&gt;" style="rounded=0;whiteSpace=wrap;html=1;" vertex="1" parent="1">
          <mxGeometry x="550" y="830" width="160" height="70" as="geometry" />
        </mxCell>
        <mxCell id="Dn6n6KIbjxRRAOKlYd3R-55" value="" style="endArrow=none;html=1;rounded=0;" edge="1" parent="1">
          <mxGeometry width="50" height="50" relative="1" as="geometry">
            <mxPoint x="520" y="860" as="sourcePoint" />
            <mxPoint x="550" y="860" as="targetPoint" />
          </mxGeometry>
        </mxCell>
        <mxCell id="Dn6n6KIbjxRRAOKlYd3R-56" value="&lt;font style=&quot;font-size: 14px;&quot;&gt;3.3.1 Функциональное тестирование&lt;/font&gt;" style="rounded=0;whiteSpace=wrap;html=1;" vertex="1" parent="1">
          <mxGeometry x="550" y="920" width="160" height="70" as="geometry" />
        </mxCell>
        <mxCell id="Dn6n6KIbjxRRAOKlYd3R-57" value="&lt;font style=&quot;font-size: 14px;&quot;&gt;3.3.2 Нагрузочное тестирование&lt;/font&gt;" style="rounded=0;whiteSpace=wrap;html=1;" vertex="1" parent="1">
          <mxGeometry x="550" y="1000" width="160" height="70" as="geometry" />
        </mxCell>
        <mxCell id="Dn6n6KIbjxRRAOKlYd3R-58" value="&lt;font style=&quot;font-size: 14px;&quot;&gt;3.3.3 Проверка UX и соответствия требованиям&lt;/font&gt;" style="rounded=0;whiteSpace=wrap;html=1;" vertex="1" parent="1">
          <mxGeometry x="550" y="1080" width="160" height="70" as="geometry" />
        </mxCell>
        <mxCell id="Dn6n6KIbjxRRAOKlYd3R-59" value="" style="endArrow=none;html=1;rounded=0;" edge="1" parent="1">
          <mxGeometry width="50" height="50" relative="1" as="geometry">
            <mxPoint x="500" y="956.74" as="sourcePoint" />
            <mxPoint x="550" y="956.74" as="targetPoint" />
          </mxGeometry>
        </mxCell>
        <mxCell id="Dn6n6KIbjxRRAOKlYd3R-60" value="" style="endArrow=none;html=1;rounded=0;" edge="1" parent="1">
          <mxGeometry width="50" height="50" relative="1" as="geometry">
            <mxPoint x="520" y="1112.08" as="sourcePoint" />
            <mxPoint x="520" y="957.08" as="targetPoint" />
          </mxGeometry>
        </mxCell>
        <mxCell id="Dn6n6KIbjxRRAOKlYd3R-61" value="" style="endArrow=none;html=1;rounded=0;entryX=0;entryY=0.5;entryDx=0;entryDy=0;" edge="1" parent="1">
          <mxGeometry width="50" height="50" relative="1" as="geometry">
            <mxPoint x="520" y="1034.76" as="sourcePoint" />
            <mxPoint x="550" y="1034.76" as="targetPoint" />
          </mxGeometry>
        </mxCell>
        <mxCell id="Dn6n6KIbjxRRAOKlYd3R-62" value="" style="endArrow=none;html=1;rounded=0;" edge="1" parent="1">
          <mxGeometry width="50" height="50" relative="1" as="geometry">
            <mxPoint x="520" y="1112.08" as="sourcePoint" />
            <mxPoint x="550" y="1112.08" as="targetPoint" />
          </mxGeometry>
        </mxCell>
        <mxCell id="Dn6n6KIbjxRRAOKlYd3R-63" value="&lt;font style=&quot;font-size: 14px;&quot;&gt;3.4 Внедрение готового продукта&lt;/font&gt;" style="rounded=0;whiteSpace=wrap;html=1;" vertex="1" parent="1">
          <mxGeometry x="340" y="1169" width="160" height="70" as="geometry" />
        </mxCell>
        <mxCell id="Dn6n6KIbjxRRAOKlYd3R-64" value="" style="endArrow=none;html=1;rounded=0;" edge="1" parent="1">
          <mxGeometry width="50" height="50" relative="1" as="geometry">
            <mxPoint x="320" y="1209" as="sourcePoint" />
            <mxPoint x="340" y="1209.12" as="targetPoint" />
          </mxGeometry>
        </mxCell>
        <mxCell id="Dn6n6KIbjxRRAOKlYd3R-65" value="" style="endArrow=none;html=1;rounded=0;" edge="1" parent="1">
          <mxGeometry width="50" height="50" relative="1" as="geometry">
            <mxPoint x="800" y="480" as="sourcePoint" />
            <mxPoint x="800" y="290" as="targetPoint" />
          </mxGeometry>
        </mxCell>
        <mxCell id="Dn6n6KIbjxRRAOKlYd3R-66" value="&lt;font style=&quot;font-size: 14px;&quot;&gt;4.1 Анализ результатов проекта&lt;/font&gt;" style="rounded=0;whiteSpace=wrap;html=1;" vertex="1" parent="1">
          <mxGeometry x="820" y="340" width="160" height="70" as="geometry" />
        </mxCell>
        <mxCell id="Dn6n6KIbjxRRAOKlYd3R-67" value="&lt;font style=&quot;font-size: 14px;&quot;&gt;4.2 Подведение итогов и закрытие проекта&lt;/font&gt;" style="rounded=0;whiteSpace=wrap;html=1;" vertex="1" parent="1">
          <mxGeometry x="820" y="440" width="160" height="70" as="geometry" />
        </mxCell>
        <mxCell id="Dn6n6KIbjxRRAOKlYd3R-69" value="" style="endArrow=none;html=1;rounded=0;" edge="1" parent="1">
          <mxGeometry width="50" height="50" relative="1" as="geometry">
            <mxPoint x="800" y="480" as="sourcePoint" />
            <mxPoint x="820" y="480" as="targetPoint" />
          </mxGeometry>
        </mxCell>
        <mxCell id="Dn6n6KIbjxRRAOKlYd3R-71" value="" style="endArrow=none;html=1;rounded=0;" edge="1" parent="1">
          <mxGeometry width="50" height="50" relative="1" as="geometry">
            <mxPoint x="800" y="375" as="sourcePoint" />
            <mxPoint x="820" y="375.12" as="targetPoint" />
          </mxGeometry>
        </mxCell>
      </root>
    </mxGraphModel>
  </diagram>
</mxfile>
